HIERARCHY
ROOT Hips
{
	OFFSET -3.958830 18.904000 13.208200
	CHANNELS 6 Xposition Yposition Zposition Zrotation Yrotation Xrotation 
	JOINT LHipJoint
	{
		OFFSET 0.000000 0.000000 0.000000
		CHANNELS 3 Zrotation Yrotation Xrotation
		JOINT LeftUpLeg
		{
			OFFSET 1.800000 -1.400000 0.085000
			CHANNELS 3 Zrotation Yrotation Xrotation
			JOINT LeftLeg
			{
				OFFSET 2.215000 -6.000000 0.000000
				CHANNELS 3 Zrotation Yrotation Xrotation
				JOINT LeftFoot
				{
					OFFSET 2.500000 -6.900000 0.000000
					CHANNELS 3 Zrotation Yrotation Xrotation
					JOINT LeftToeBase
					{
						OFFSET 0.200000 -0.500000 1.950000
						CHANNELS 3 Zrotation Yrotation Xrotation
						End Site
						{
							OFFSET 0.000000 0.000000 0.000000
						}
					}
				}
			}
		}
	}
	JOINT RHipJoint
	{
		OFFSET 0.000000 0.000000 0.000000
		CHANNELS 3 Zrotation Yrotation Xrotation
		JOINT RightUpLeg
		{
			OFFSET -1.800000 -1.400000 0.085000
			CHANNELS 3 Zrotation Yrotation Xrotation
			JOINT RightLeg
			{
				OFFSET -2.215000 -6.000000 0.000000
				CHANNELS 3 Zrotation Yrotation Xrotation
				JOINT RightFoot
				{
					OFFSET -2.500000 -6.900000 0.000000
					CHANNELS 3 Zrotation Yrotation Xrotation
					JOINT RightToeBase
					{
						OFFSET -0.200000 -0.500000 1.950000
						CHANNELS 3 Zrotation Yrotation Xrotation
						End Site
						{
							OFFSET 0.000000 0.000000 0.000000
						}
					}
				}
			}
		}
	}
	JOINT LowerBack
	{
		OFFSET 0.000000 0.000000 0.000000
		CHANNELS 3 Zrotation Yrotation Xrotation
		JOINT Spine
		{
			OFFSET -0.087000 1.940000 -0.288900
			CHANNELS 3 Zrotation Yrotation Xrotation
			JOINT Spine1
			{
				OFFSET 0.000000 1.950000 0.060000
				CHANNELS 3 Zrotation Yrotation Xrotation
				JOINT Neck
				{
					OFFSET 0.000000 0.000000 0.000000
					CHANNELS 3 Zrotation Yrotation Xrotation
					JOINT Neck1
					{
						OFFSET 0.000000 1.600000 0.340000
						CHANNELS 3 Zrotation Yrotation Xrotation
						JOINT Head
						{
							OFFSET 0.000000 1.667000 -0.240000
							CHANNELS 3 Zrotation Yrotation Xrotation
							End Site
							{
								OFFSET 0.000000 0.000000 0.000000
							}
						}
					}
				}
				JOINT LeftShoulder
				{
					OFFSET 0.000000 0.000000 0.000000
					CHANNELS 3 Zrotation Yrotation Xrotation
					JOINT LeftArm
					{
						OFFSET 2.700000 1.550000 -0.730000
						CHANNELS 3 Zrotation Yrotation Xrotation
						JOINT LeftForeArm
						{
							OFFSET 5.450000 0.000000 0.000000
							CHANNELS 3 Zrotation Yrotation Xrotation
							JOINT LeftHand
							{
								OFFSET 3.450000 0.000000 0.000000
								CHANNELS 3 Zrotation Yrotation Xrotation
								JOINT LeftHandIndex1
								{
									OFFSET 0.750000 0.000000 0.000000
									CHANNELS 3 Zrotation Yrotation Xrotation
									End Site
									{
										OFFSET 0.000000 0.000000 0.000000
									}
								}
							}
						}
					}
				}
				JOINT RightShoulder
				{
					OFFSET 0.000000 0.000000 0.000000
					CHANNELS 3 Zrotation Yrotation Xrotation
					JOINT RightArm
					{
						OFFSET -2.700000 1.550000 -0.730000
						CHANNELS 3 Zrotation Yrotation Xrotation
						JOINT RightForeArm
						{
							OFFSET -5.450000 0.000000 0.000000
							CHANNELS 3 Zrotation Yrotation Xrotation
							JOINT RightHand
							{
								OFFSET -3.450000 0.000000 0.000000
								CHANNELS 3 Zrotation Yrotation Xrotation
								JOINT RightHandIndex1
								{
									OFFSET -0.750000 0.000000 0.000000
									CHANNELS 3 Zrotation Yrotation Xrotation
									End Site
									{
										OFFSET 0.000000 0.000000 0.000000
									}
								}
							}
						}
					}
				}
			}
		}
	}
}
MOTION
Frames: 13
Frame Time: 0.016667
1.226620 17.865560 -1.360140 1.227049 -5.902222 9.403367 -14.886338 12.574078 3.130143 3.678593 -1.501457 -12.040325 -4.334883 2.544111 -2.786156 -0.899713 4.122377 3.646714 -0.010540 -0.550740 -0.129590 18.605778 -10.916430 3.078288 -0.413549 -0.439917 -3.446806 10.377297 -5.833236 5.800480 -0.578273 -4.446718 2.899548 -0.119200 1.076890 0.803850 -4.386329 -0.519633 -7.526497 14.840513 3.014823 6.268807 -8.495666 4.934510 2.515358 2.961126 -3.149999 -10.243482 -6.298447 3.280680 29.850739 -6.023940 1.693080 -7.041120 -16.898239 -5.953174 3.279012 3.729936 6.564234 1.700909 6.746106 4.457578 -1.528747 -4.647195 2.481249 0.753790 0.613760 -0.062020 0.425850 10.495815 9.568064 7.079173 3.444130 5.196256 -1.855763 -10.225235 3.659845 -0.253533 2.145307 -1.142138 -0.505230 0.470740 0.379860 -0.032920 
1.264820 17.836240 -1.396080 1.519631 -8.058144 10.135837 -14.891844 12.505786 3.002803 4.937236 -1.546954 -12.557518 -3.730420 2.517121 -2.271491 -0.939591 4.167068 3.662980 -0.018480 -0.553380 -0.155410 18.618744 -10.936760 3.024059 -1.406115 -0.228106 -4.250833 10.638477 -5.734729 5.316619 -0.520912 -4.502261 2.890176 -0.081990 1.166910 0.810750 -4.387845 -0.346104 -7.299364 13.891649 3.373596 4.827012 -8.462416 5.058082 4.126484 2.796423 -3.257115 -9.937825 -5.929826 3.479384 26.604745 -6.196320 1.864540 -5.746760 -16.882819 -6.224858 3.376118 4.154476 6.378177 1.769872 7.814429 3.910965 -1.493289 -4.713523 2.537230 0.677880 0.698540 -0.139610 0.447620 10.993781 9.711048 6.875305 2.530404 5.595115 -1.674457 -10.133595 3.935173 -0.430689 2.107511 -1.217562 -0.533310 0.487480 0.386770 -0.017030 
1.302090 17.818590 -1.428930 1.834402 -9.631519 10.579890 -14.921185 12.489996 2.934512 6.205916 -1.525068 -12.829394 -3.549513 2.531813 -2.102091 -0.929541 4.217906 3.661977 -0.007650 -0.514290 -0.185730 18.598133 -10.897728 2.982805 -2.422536 -0.077205 -4.725732 11.052032 -5.663282 4.809769 -0.495079 -4.545590 2.888941 -0.043260 1.217960 0.808680 -4.313460 -0.378042 -7.169463 12.717799 3.627380 3.945626 -7.843081 5.082878 5.026207 2.476042 -3.656596 -9.812025 -6.342675 3.937136 24.723457 -5.889210 1.954680 -5.159920 -16.332930 -6.112136 3.388402 3.925230 6.032419 1.775334 7.966938 3.229086 -1.477747 -4.728355 2.583122 0.619120 0.743350 -0.175890 0.479480 11.291149 9.797867 6.800371 1.974150 5.360315 -1.637873 -10.616533 4.572520 -0.581138 2.081078 -1.277616 -0.534770 0.500840 0.372220 0.012370 
1.334790 17.818300 -1.457070 1.520824 -11.164356 10.797118 -14.914098 12.528384 2.897085 7.957385 -1.403194 -12.594596 -2.930854 2.520020 -2.203715 -0.886166 4.260307 3.641641 0.012860 -0.465570 -0.195880 18.593422 -10.878029 2.987061 -2.771700 -0.001344 -4.905290 11.410187 -5.655109 4.670140 -0.504863 -4.537373 2.903217 -0.027010 1.212230 0.800480 -4.306403 -0.441121 -7.161273 12.737689 3.569984 3.863301 -7.925792 5.047347 4.847919 2.422968 -4.047489 -9.865903 -7.033392 4.815036 24.645415 -5.178270 2.380220 -5.557770 -16.290854 -6.107850 3.377400 3.272931 5.450540 1.539778 9.959811 3.586459 -1.326816 -4.723982 2.590170 0.606600 0.733380 -0.160620 0.498100 11.395462 10.073029 6.828200 1.566745 5.563175 -1.549819 -10.050351 4.528779 -0.558207 2.092156 -1.268410 -0.514260 0.506820 0.350770 0.032290 
1.367010 17.824770 -1.486920 1.422924 -12.566496 10.793897 -14.912464 12.599361 2.874300 9.078178 -1.319486 -12.238822 -1.919352 2.432352 -2.277141 -0.841720 4.247066 3.625916 0.051120 -0.385420 -0.224540 18.578054 -10.893254 2.962586 -3.156231 0.095341 -5.257989 11.335921 -5.685975 5.201185 -0.519281 -4.514274 2.908988 0.000090 1.197660 0.817290 -4.273672 -0.513441 -7.146719 12.378737 3.551343 4.008562 -7.812020 5.000156 4.565992 2.262509 -4.336653 -9.774606 -7.590393 5.897821 24.869711 -4.072480 2.834920 -6.164760 -15.880586 -5.823498 3.196611 2.775879 4.628566 1.400101 10.646705 2.923070 -1.285568 -4.692654 2.640833 0.592170 0.719150 -0.127900 0.529760 11.334542 10.001633 6.702570 1.587739 5.922537 -1.477767 -9.818421 4.703440 -0.554219 2.095191 -1.282267 -0.467630 0.491120 0.328440 0.066100 
1.392930 17.826120 -1.518990 1.278265 -13.670711 10.801867 -14.921223 12.646619 2.853951 10.172905 -1.271242 -11.905535 -1.123353 2.376309 -2.437470 -0.819728 4.288316 3.598939 0.084300 -0.334780 -0.226940 18.567316 -10.867703 2.934163 -3.166233 0.160731 -5.582810 11.169352 -5.661096 5.515320 -0.522717 -4.477589 2.911451 0.024460 1.191210 0.829690 -4.241156 -0.628875 -7.108913 12.060835 3.355265 3.920564 -7.675878 4.750715 4.651201 1.986026 -4.682014 -9.621630 -8.240106 6.918692 24.772997 -3.288840 3.298210 -6.534960 -15.411402 -5.654434 3.040582 2.999761 3.628350 1.444498 9.277285 3.085194 -1.373499 -4.679693 2.671435 0.582610 0.713130 -0.115050 0.544690 11.458596 9.921697 6.531643 1.646009 6.259940 -1.507812 -10.264692 4.501536 -0.591394 2.099592 -1.305487 -0.442810 0.481940 0.316060 0.079950 
1.427400 17.833430 -1.546610 1.057612 -14.245012 10.778658 -14.927727 12.691652 2.841877 11.279403 -1.222672 -11.722168 -0.727931 2.392765 -2.413629 -0.797498 4.351205 3.577596 0.098000 -0.298600 -0.240980 18.558460 -10.828489 2.914719 -3.081210 0.226753 -5.868272 11.232012 -5.675171 5.826514 -0.519911 -4.466034 2.917510 0.045550 1.205450 0.833600 -4.217849 -0.766510 -7.089578 12.104589 2.872987 3.935188 -7.613129 4.235255 4.606545 1.731477 -4.939849 -9.518500 -8.723970 7.646318 24.518188 -3.059380 3.734760 -6.474930 -14.987805 -5.747341 2.887967 4.076262 2.385460 1.627852 5.127531 4.539824 -1.641151 -4.687248 2.669689 0.562430 0.725410 -0.113920 0.564760 11.570328 9.952904 6.457046 1.645984 6.404215 -1.474550 -10.460052 4.463254 -0.635284 2.098487 -1.324465 -0.433390 0.487060 0.303830 0.098740 
1.456790 17.840400 -1.567770 1.312136 -14.717803 10.648522 -14.970593 12.768336 2.827961 11.618184 -1.243633 -11.540142 -0.329598 2.383709 -2.259174 -0.796520 4.386642 3.567706 0.115010 -0.278070 -0.224710 18.516685 -10.771389 2.881887 -3.378536 0.249877 -5.969289 11.074232 -5.639630 5.852012 -0.516138 -4.454768 2.911453 0.062670 1.211080 0.844610 -4.093385 -1.001583 -7.051675 11.079838 2.365438 3.797767 -7.099970 3.570292 4.822289 1.554933 -4.992158 -9.490430 -8.812276 8.468667 23.954897 -3.099420 4.507780 -6.479450 -14.465216 -5.861864 2.964516 4.002523 1.568678 1.644965 3.971112 5.802253 -1.766469 -4.712794 2.679525 0.552760 0.737680 -0.113150 0.570720 11.530873 9.939922 6.297770 2.017305 6.743608 -1.482810 -10.839872 4.969540 -0.721292 2.087829 -1.349176 -0.431210 0.482410 0.291920 0.099020 
1.480730 17.850910 -1.583050 1.002749 -15.571468 10.787992 -14.988544 12.792094 2.856682 12.345012 -1.254332 -11.088906 -0.167177 2.391814 -2.663266 -0.776543 4.480490 3.537016 0.116600 -0.278790 -0.220060 18.501983 -10.717385 2.862452 -3.071916 0.274117 -6.151732 10.718201 -5.552521 5.887448 -0.503913 -4.401120 2.926400 0.064860 1.213300 0.844490 -4.044349 -1.142490 -7.060764 10.946863 1.969755 3.757313 -6.964939 3.133092 4.682593 1.468476 -5.108741 -9.611343 -9.027352 9.196880 23.572488 -2.944950 5.117590 -6.377300 -14.241461 -6.025577 3.094410 3.973597 1.452582 1.651582 3.552682 6.319972 -1.818619 -4.720857 2.687769 0.551020 0.740620 -0.117740 0.569360 11.552946 10.068503 6.333175 2.418546 6.663407 -1.527353 -11.188659 5.251338 -0.763009 2.083467 -1.359915 -0.434550 0.477950 0.290470 0.095410 
1.500170 17.858370 -1.589300 0.890050 -16.603392 10.834522 -15.012606 12.828038 2.878214 12.816040 -1.231864 -10.609411 -0.537517 2.490077 -2.623967 -0.750976 4.561850 3.505656 0.115880 -0.288330 -0.203670 18.474607 -10.674857 2.859933 -3.030370 0.283095 -6.174828 10.690342 -5.529165 5.811655 -0.506905 -4.372936 2.925268 0.052370 1.198510 0.847870 -3.961930 -1.271664 -7.085628 10.323589 1.859974 3.752358 -6.707245 2.941597 4.441177 1.509504 -4.945297 -9.801165 -8.775509 9.549200 23.589889 -2.915160 5.643890 -6.409440 -14.087417 -6.248486 3.203070 3.835769 1.136469 1.548009 4.269809 6.732757 -1.762593 -4.728450 2.688078 0.561200 0.729800 -0.109170 0.560160 11.408249 10.140862 6.494077 3.576447 6.177082 -1.665248 -12.027604 5.970819 -0.824320 2.077977 -1.371698 -0.431440 0.462630 0.287310 0.086930 
1.529380 17.865610 -1.598470 0.785436 -17.239565 10.914182 -15.042680 12.845898 2.874389 12.911076 -1.246485 -10.366290 -0.862623 2.555472 -2.499468 -0.757056 4.616288 3.490570 0.129330 -0.270600 -0.192160 18.453933 -10.614298 2.859822 -2.986914 0.253879 -6.114065 10.551752 -5.409492 5.209814 -0.506006 -4.356723 2.934209 0.071130 1.205660 0.850300 -3.890110 -1.405851 -7.070452 9.847373 1.610090 3.604713 -6.272494 2.544743 4.528717 1.418666 -4.803337 -9.716803 -8.483681 9.917280 23.006134 -3.012000 6.077430 -6.599990 -13.717114 -6.254888 3.127416 4.004755 0.266239 1.579587 3.030064 7.684448 -1.914977 -4.755042 2.680566 0.556440 0.743750 -0.112820 0.564850 11.300515 9.868113 6.410474 4.065563 5.515376 -1.816558 -12.957883 8.042013 -1.012591 2.020453 -1.399104 -0.437110 0.469040 0.280160 0.082600 
1.563140 17.883590 -1.601690 0.685885 -17.932060 10.903630 -15.072979 12.901176 2.884296 12.648115 -1.239880 -10.136418 -1.424061 2.661184 -2.225469 -0.770610 4.657671 3.479472 0.128820 -0.281990 -0.165310 18.426953 -10.561142 2.859163 -2.869420 0.221180 -6.044727 9.957660 -5.239374 4.662857 -0.506960 -4.284845 2.959139 0.066490 1.194500 0.848760 -3.802489 -1.594044 -7.079609 9.466460 1.398213 3.703352 -5.879840 2.258685 4.525280 1.489502 -4.772368 -9.788354 -8.492512 10.074585 22.925557 -3.534200 6.533970 -7.239150 -13.944956 -6.517160 3.073881 4.098782 -0.664240 1.486797 2.944412 9.169091 -1.972768 -4.780648 2.633670 0.585990 0.737450 -0.097760 0.555890 11.465370 9.937393 6.585323 4.213361 4.278990 -2.009651 -13.285235 9.758136 -1.077471 1.977573 -1.385526 -0.452650 0.480270 0.278340 0.063840 
1.597620 17.892030 -1.604630 0.378278 -18.905874 11.185583 -15.093959 12.892825 2.894741 12.477587 -1.230388 -9.885954 -2.399511 2.827579 -2.125166 -0.792133 4.773195 3.459544 0.096030 -0.325430 -0.166990 18.421200 -10.498359 2.843896 -2.817711 0.254466 -6.183839 9.744943 -5.124879 4.247947 -0.476817 -4.255504 2.973881 0.064950 1.234800 0.831490 -3.774111 -1.700429 -7.043483 9.600346 1.157697 3.345419 -5.805095 2.010820 4.918805 1.513235 -4.899181 -9.829403 -8.666330 10.360295 21.988905 -3.908700 6.802110 -7.009680 -14.321846 -6.917223 3.067861 4.040772 -1.727402 1.334333 3.471242 11.900843 -1.987648 -4.873805 2.572940 0.580380 0.766810 -0.133800 0.539040 11.865590 10.179461 6.773776 3.790214 3.064156 -2.069100 -13.072202 11.252416 -1.137292 1.928154 -1.374466 -0.494760 0.516250 0.305190 0.050010 
